<svg width="355" height="251" viewBox="0 0 355 251" fill="none" xmlns="http://www.w3.org/2000/svg">
<path fill-rule="evenodd" clip-rule="evenodd" d="M191.68 0.520014L191.68 0.520013C177.936 0.404896 162.97 0.279534 148.216 6.73429C114.506 21.4823 104.509 58.7918 101.43 88.0426C100.293 98.8487 98.0517 109.552 95.7128 120.723L95.4881 121.797C93.0969 133.224 90.6432 145.133 89.5307 157.371C89.1557 161.496 92.1958 165.144 96.3209 165.519C100.446 165.894 104.094 162.854 104.469 158.729C105.492 147.479 107.761 136.38 110.17 124.869L110.45 123.53C112.747 112.566 115.128 101.195 116.348 89.6128C119.377 60.8308 128.73 31.6321 154.228 20.4766C165.864 15.3858 177.482 15.4509 191.542 15.5298C193.321 15.5397 195.138 15.5499 197 15.5499C205.868 15.5499 214.239 16.5208 222.902 17.7322C224.707 17.9848 226.537 18.2496 228.389 18.5177C235.297 19.5178 242.524 20.564 250.044 21.1907C253.671 21.493 257.008 21.6678 260.171 21.8335L260.171 21.8335C267.644 22.2249 274.144 22.5655 281.211 24.4163C286.426 25.7822 291.522 27.5274 296.927 29.3786L297.979 29.7389C303.679 31.6892 309.719 33.7253 316.036 35.2337C326.185 37.6575 335.902 40.2199 342.017 45.6555C345.113 48.4074 349.854 48.1285 352.605 45.0326C355.357 41.9368 355.079 37.1962 351.983 34.4443C342.674 26.1703 329.199 22.9541 319.916 20.7385L319.52 20.6439C313.985 19.3222 308.568 17.5083 302.835 15.5467C302.449 15.4145 302.061 15.2815 301.671 15.1479C296.379 13.3345 290.785 11.4179 285.011 9.90573C276.359 7.63969 267.573 7.1784 259.531 6.75619C256.677 6.60635 253.917 6.46142 251.289 6.24249C244.268 5.65735 237.623 4.69627 230.778 3.70615L230.778 3.70613C228.865 3.42943 226.936 3.15045 224.979 2.87678C216.14 1.64069 206.937 0.549912 197 0.549912C195.25 0.549912 193.475 0.535051 191.68 0.520014ZM190.859 112.431C194.41 110.3 195.562 105.693 193.431 102.141C191.3 98.5895 186.693 97.4378 183.141 99.5689C180.714 101.025 178.603 103.067 176.994 104.815C175.322 106.63 173.83 108.534 172.709 110C168.919 114.956 165.994 120.585 163.447 125.763C162.896 126.883 162.366 127.976 161.847 129.044L161.847 129.045L161.846 129.046C159.867 133.123 158.067 136.829 156.013 140.252C142.44 162.874 127.951 185.005 113.4 207.229C108.871 214.147 104.336 221.073 99.8208 228.027C99.1739 229.023 98.4628 230.302 97.8341 231.454C97.4036 230.876 96.9803 230.339 96.5863 229.85C95.7583 228.824 95.1462 228.103 94.6107 227.473L94.6099 227.472C94.0056 226.761 93.4987 226.164 92.889 225.372C91.1944 223.169 89.81 220.862 88.1821 218.15L88.1819 218.149L88.179 218.144C87.7826 217.484 87.3716 216.799 86.9383 216.086C84.8474 212.646 82.3206 208.714 78.8032 205.197C76.3747 202.768 74.4913 200.089 72.2328 196.875L72.2322 196.874C71.3735 195.652 70.4604 194.353 69.4426 192.962C65.8285 188.02 62.0603 183.195 58.3772 178.479C57.82 177.765 57.2647 177.054 56.7122 176.346C52.4733 170.909 48.3681 165.581 44.5385 160.096C39.2198 152.477 34.3183 144.552 29.3943 136.43C28.5087 134.969 27.6211 133.499 26.73 132.024C22.7016 125.355 18.6017 118.568 14.2936 111.921C12.0407 108.445 7.39658 107.454 3.92069 109.706C0.444808 111.959 -0.546627 116.603 1.70626 120.079C5.87264 126.507 9.82324 133.047 13.8455 139.705L13.851 139.715C14.7517 141.206 15.6561 142.703 16.5672 144.206C21.5139 152.366 26.6256 160.641 32.2391 168.682C36.3159 174.522 40.636 180.122 44.8833 185.569C45.4469 186.292 46.0088 187.012 46.5687 187.729C50.2626 192.459 53.8717 197.081 57.335 201.816C57.966 202.679 58.641 203.642 59.3593 204.666C61.8083 208.158 64.7614 212.368 68.1966 215.803C70.3691 217.976 72.1288 220.6 74.1198 223.876C74.4477 224.416 74.7873 224.983 75.1395 225.571L75.1426 225.577C76.7954 228.338 78.7232 231.558 80.9997 234.517C81.6612 235.377 82.6981 236.614 83.5882 237.675L83.5892 237.676C84.1182 238.307 84.5952 238.876 84.9107 239.267C86.142 240.794 86.8305 241.836 87.1463 242.546C88.3286 245.206 90.9068 249.901 96.277 250.648C101.662 251.398 105.147 247.517 106.274 246.173C107.834 244.314 109.142 242.024 110.072 240.343C110.405 239.739 110.695 239.206 110.953 238.732C111.554 237.627 111.984 236.838 112.401 236.196C116.846 229.35 121.336 222.493 125.838 215.617C140.423 193.341 155.136 170.869 168.876 147.97C171.307 143.918 173.478 139.44 175.486 135.3L175.487 135.298C175.97 134.304 176.443 133.328 176.908 132.383C179.416 127.282 181.798 122.807 184.624 119.112C185.677 117.735 186.835 116.271 188.029 114.974C189.286 113.609 190.254 112.794 190.859 112.431ZM94.6445 236.687C94.6367 236.694 94.6329 236.698 94.6332 236.698C94.6334 236.698 94.635 236.696 94.638 236.693L94.6445 236.687Z" fill="#6F274A"/>
</svg>
